PathFileType  4	(X/Y/Z) C:\Users\antoi\Documents\MyRepositories\mobilecap\ResultsAnalysis
DataRate	CameraRate	NumFrames	NumMarkers	Units	OrigDataRate	OrigDataStartFrame	OrigNumFrames
100.0	100.0	6	51	mm	100.0	501	801
Frame#	Time	r_knee			r_shank_antsup			r_ankle			r_calc			r_5meta			r_toe			L_knee			L_shank_antsup			L_ankle			L_calc			L_5meta			L_toe			r_sh2			r_sh3			r_sh4			L_sh2			L_sh3			r_thigh1			r_thigh2			r_thigh3			r_thigh4			r_thigh5			L_thigh1			L_thigh2			L_thigh3			L_thigh4			r.ASIS			r.PSIS			L.ASIS			L.PSIS			C7			R_Shoulder			L_Shoulder			R_Sternum			L_Sternum			R_humerus			R_elbow_med			R_elbow_lat			R_forearm			R_wrist_radius			R_wrist_ulna			L_humerus			L_elbow_med			L_elbow_lat			L_forearm			L_wrist_radius			L_wrist_ulna			R_HJC			L_HJC			R_HJC_reg			L_HJC_reg			
		X1	Y1	Z1	X2	Y2	Z2	X3	Y3	Z3	X4	Y4	Z4	X5	Y5	Z5	X6	Y6	Z6	X7	Y7	Z7	X8	Y8	Z8	X9	Y9	Z9	X10	Y10	Z10	X11	Y11	Z11	X12	Y12	Z12	X13	Y13	Z13	X14	Y14	Z14	X15	Y15	Z15	X16	Y16	Z16	X17	Y17	Z17	X18	Y18	Z18	X19	Y19	Z19	X20	Y20	Z20	X21	Y21	Z21	X22	Y22	Z22	X23	Y23	Z23	X24	Y24	Z24	X25	Y25	Z25	X26	Y26	Z26	X27	Y27	Z27	X28	Y28	Z28	X29	Y29	Z29	X30	Y30	Z30	X31	Y31	Z31	X32	Y32	Z32	X33	Y33	Z33	X34	Y34	Z34	X35	Y35	Z35	X36	Y36	Z36	X37	Y37	Z37	X38	Y38	Z38	X39	Y39	Z39	X40	Y40	Z40	X41	Y41	Z41	X42	Y42	Z42	X43	Y43	Z43	X44	Y44	Z44	X45	Y45	Z45	X46	Y46	Z46	X47	Y47	Z47	X48	Y48	Z48	X49	Y49	Z49	X50	Y50	Z50	X51	Y51	Z51	

501	5.00000000	-228.60405	611.55792	-353.71920	-205.32582	464.24038	-339.93205	-293.83962	105.26662	-303.86732	-352.73777	72.11925	-365.49669	-159.10480	45.03627	-270.26278	-119.84144	72.73917	-320.99749	-250.99324	610.66863	-829.02120	-208.66377	413.73486	-839.56599	-304.17309	117.63379	-880.77608	-358.30502	73.85203	-819.39525	-164.75060	37.48210	-927.03242	-120.80337	67.45958	-869.08070	-217.50982	350.47209	-333.56057	-270.63884	470.96037	-304.74849	-284.66866	360.56379	-287.74845	-280.10081	433.65970	-886.72268	-296.97512	315.27688	-886.76157	-252.97140	907.79489	-360.58009	-217.47785	802.02564	-349.14719	-271.89652	760.98234	-339.64754	-356.18219	872.36372	-389.22062	-322.05392	760.82295	-365.12240	-232.53399	909.34984	-794.79337	-213.51514	777.11002	-810.33492	-342.17663	898.92517	-803.05390	-318.95018	764.75076	-828.83942	-223.64991	1154.08869	-447.01860	-397.67129	1216.90164	-537.44896	-226.78102	1145.04030	-717.24066	-395.33080	1217.80096	-629.91877	-202.79381	1668.88163	-592.15729	-122.57180	1623.96776	-421.27784	-140.55208	1646.11515	-755.29829	-69.05355	1570.75031	-566.63191	-69.81602	1569.00157	-615.01533	-71.81919	1373.74452	-355.45030	-133.51247	1227.73547	-353.69883	-82.05860	1262.66473	-289.06475	80.01269	1256.69345	-431.77770	145.25145	1254.83294	-489.88480	146.94299	1218.98205	-479.99381	-72.79535	1378.13979	-820.77769	-152.23648	1267.96336	-825.16668	-86.63661	1287.02887	-876.73092	76.84317	1266.91266	-750.19173	128.92035	1266.92492	-696.72693	131.37649	1236.61130	-714.37270	-317.71848	1074.46712	-481.64932	-323.02687	1073.11222	-679.04919	-309.18803	1079.76551	-488.36912	-304.67420	1081.49948	-666.76298	
502	5.01000000	-230.55189	611.72254	-353.16513	-206.50633	464.43951	-339.75008	-293.93743	105.28164	-303.55170	-352.88361	72.02694	-365.39524	-159.12172	45.13185	-270.36211	-119.85635	72.86847	-321.28277	-252.36665	610.69457	-829.53957	-209.51919	414.05803	-840.15685	-304.39874	117.68282	-880.98160	-358.35232	73.91938	-819.49427	-164.74505	37.49915	-927.00276	-120.86012	67.51848	-869.08046	-218.51787	350.66163	-333.19691	-271.80495	471.06106	-304.19429	-286.06523	361.16885	-287.01328	-281.07045	433.85843	-887.39995	-297.66353	315.15067	-886.92428	-259.22043	906.93057	-359.90669	-222.07872	802.04188	-348.83911	-275.90636	759.92563	-338.88860	-362.20586	870.06810	-387.70151	-326.22086	759.16656	-364.03853	-239.69040	909.29482	-794.34985	-217.60110	777.43172	-809.97700	-348.84411	896.75246	-803.72669	-322.58359	763.16902	-829.80076	-230.51643	1149.76266	-447.23580	-402.52668	1217.93791	-536.91029	-234.66799	1140.53439	-717.38340	-400.30261	1218.58294	-629.52795	-196.87013	1663.40132	-592.66176	-116.63985	1617.62620	-423.22238	-135.32200	1640.58324	-755.23625	-64.79457	1564.18229	-567.68116	-65.82092	1562.02438	-615.74871	-63.98769	1369.33830	-356.25133	-124.80488	1222.72453	-353.58740	-73.29335	1258.24128	-289.13491	88.52512	1252.76433	-432.19054	153.66415	1250.94570	-490.41069	155.53613	1215.13595	-480.49720	-65.37274	1374.11453	-820.50620	-143.87287	1263.05908	-825.26793	-78.06149	1282.68616	-876.95508	85.47016	1263.27940	-750.20460	137.62161	1263.34964	-696.70454	140.31282	1233.12542	-714.40588	-327.00118	1073.08034	-481.38178	-332.98966	1071.72364	-678.76267	-318.55783	1078.27390	-488.29653	-314.27526	1079.51521	-666.66326	
503	5.02000000	-232.40778	611.87787	-352.58401	-207.66853	464.77949	-339.37541	-293.98951	105.22555	-303.40953	-352.96126	72.00683	-365.34765	-159.15362	45.11432	-270.41955	-119.97412	72.99864	-321.23594	-253.62169	610.61855	-829.89807	-210.30385	414.46692	-840.83255	-304.51192	117.75189	-881.13830	-358.34357	74.03963	-819.60704	-164.73300	37.48860	-927.00530	-120.86664	67.54171	-869.10747	-219.50930	350.99689	-332.87459	-272.93872	471.11734	-303.76300	-287.56196	361.62624	-286.64403	-281.98778	434.09258	-888.05610	-298.25699	315.06752	-887.12643	-265.55997	906.08389	-359.36489	-226.65395	801.95570	-348.60332	-279.86177	758.80387	-338.27247	-368.30230	867.81040	-385.98463	-330.36470	757.33954	-363.08346	-246.67012	909.15933	-794.01372	-221.66774	777.76451	-809.47170	-355.41506	894.36946	-804.47348	-326.07690	761.59826	-830.84420	-237.78411	1144.90402	-447.32562	-407.24553	1218.51169	-536.35845	-242.51487	1135.49771	-717.38137	-405.27664	1218.88501	-629.18241	-190.92916	1657.15351	-593.09765	-111.01837	1610.74494	-425.37827	-130.08150	1634.15310	-755.03753	-60.58929	1556.60167	-568.75819	-61.82017	1553.99751	-616.39130	-55.98058	1364.19797	-356.83196	-115.68027	1217.00739	-353.15182	-64.23682	1253.10511	-289.02342	97.27002	1248.30614	-432.54460	162.73331	1246.50255	-490.54553	164.38815	1210.83585	-481.02165	-57.78619	1369.35852	-820.30352	-135.14784	1257.32553	-825.57866	-69.27204	1277.58804	-877.13734	94.24424	1259.15469	-750.21772	146.45178	1259.39850	-696.75825	149.46622	1229.34211	-714.61433	-336.54114	1071.30067	-481.05651	-342.98473	1069.96365	-678.42345	-327.97996	1076.47933	-487.96648	-324.19610	1077.19838	-666.29631	
504	5.03000000	-234.07461	612.04398	-351.97311	-208.69870	465.10220	-338.85560	-294.02657	105.16464	-303.36135	-352.95693	72.05706	-365.31067	-159.14482	45.09222	-270.38650	-120.00429	73.02790	-321.10753	-254.86174	610.62338	-830.33893	-211.14665	414.86013	-841.42935	-304.56536	117.72279	-881.21081	-358.31157	74.17048	-819.72447	-164.72339	37.45503	-927.03509	-120.82848	67.51051	-869.13798	-220.27203	351.33423	-332.57003	-273.90625	471.18617	-303.30600	-288.07677	361.31882	-286.40197	-282.86895	434.23722	-888.57719	-298.80350	315.03856	-887.47457	-271.93313	905.24337	-358.97182	-231.23837	801.60939	-348.48151	-283.73280	757.69658	-337.73948	-374.40451	865.39839	-384.40543	-334.44207	755.42785	-362.19110	-253.48373	908.99111	-793.77136	-225.72545	778.28614	-809.25925	-361.84261	892.03143	-805.48589	-329.52405	760.06221	-831.98536	-245.18473	1139.74853	-447.54161	-411.84211	1218.53563	-535.91243	-250.35937	1130.17718	-717.13467	-410.20309	1218.66265	-628.79763	-185.05317	1650.07679	-593.34553	-105.27280	1603.35326	-427.16159	-124.83600	1626.81462	-754.75280	-56.35992	1548.10374	-569.86777	-57.86898	1545.13426	-617.07722	-47.77991	1358.28100	-357.19528	-106.09070	1210.52167	-352.38667	-54.59830	1247.22759	-288.70338	106.32396	1243.30918	-432.79187	172.30827	1241.66938	-490.49721	173.49669	1206.13437	-481.54889	-50.09609	1363.79236	-820.21915	-125.81795	1250.63254	-826.39051	-60.30047	1271.71734	-877.28323	103.20844	1254.53687	-750.33073	155.42064	1255.02656	-696.93070	158.83449	1225.19020	-715.00851	-346.00741	1069.20252	-480.71067	-352.82726	1067.89159	-678.06473	-337.21170	1074.48053	-487.64591	-334.07084	1074.72470	-665.69438	
505	5.04000000	-235.52351	612.13574	-351.43451	-209.49836	465.33487	-338.34296	-294.05344	105.15383	-303.31449	-352.89444	72.14968	-365.25805	-159.11365	45.05465	-270.36011	-119.93276	72.95210	-321.00007	-256.09433	610.76550	-830.94591	-212.00455	415.09044	-841.90808	-304.63169	117.62888	-881.23865	-358.28529	74.22153	-819.75977	-164.72296	37.41193	-927.07442	-120.81048	67.44418	-869.19628	-220.74686	351.60235	-332.25696	-274.69301	471.28266	-302.76011	-287.87652	360.87207	-285.94613	-283.77024	434.20508	-888.97542	-299.35332	315.12391	-887.93377	-278.28835	904.31847	-358.55469	-235.82317	801.23531	-348.42197	-287.52265	756.60204	-337.17075	-380.32122	862.65152	-383.17603	-338.36868	753.49241	-361.32965	-260.26170	908.67228	-793.50484	-229.68922	778.83505	-809.38534	-368.18581	889.70746	-806.41846	-332.94784	758.50011	-833.04912	-252.63703	1134.37893	-447.82366	-416.42447	1217.95790	-535.70556	-258.20355	1124.48466	-716.81538	-415.08574	1217.90486	-628.36199	-179.25596	1642.09599	-593.71571	-99.15155	1595.05778	-428.50142	-119.55131	1618.66632	-754.55307	-52.17183	1538.68323	-570.88510	-53.81064	1535.41470	-617.83986	-39.35584	1351.55781	-357.53702	-96.04113	1203.19755	-351.32615	-44.32264	1240.77434	-288.03292	115.68600	1237.84695	-433.04355	181.79604	1236.59826	-490.85591	182.89837	1201.08771	-482.04040	-42.31103	1357.36370	-820.25266	-116.20336	1243.07188	-827.34665	-51.12867	1265.12854	-877.54124	112.36349	1249.39383	-750.59947	164.54862	1250.19193	-697.14516	168.36945	1220.54641	-715.43930	-355.35703	1066.81022	-480.35991	-362.50276	1065.43330	-677.70206	-346.27548	1072.05746	-487.43930	-343.71031	1071.95491	-665.11369	
506	5.05000000	-236.79733	612.10342	-350.93066	-210.17147	465.51578	-337.84739	-294.09041	105.12800	-303.28830	-352.82845	72.22578	-365.22088	-159.10342	44.90739	-270.45832	-119.86150	72.88663	-320.78739	-257.36548	610.86374	-831.58461	-212.79586	415.14797	-842.36741	-304.72517	117.53794	-881.25885	-358.28549	74.13740	-819.66380	-164.73254	37.36555	-927.11353	-120.84783	67.38726	-869.27823	-221.08124	351.79170	-331.90637	-275.40557	471.34541	-302.21902	-288.01661	360.94631	-285.38604	-284.74454	434.01602	-889.23915	-299.95026	315.27737	-888.37793	-284.66697	903.29621	-357.98159	-240.30281	801.04292	-348.34010	-291.16393	755.46417	-336.58947	-386.03419	859.69032	-382.13487	-341.96838	751.43274	-360.56155	-267.02523	908.11214	-793.25098	-233.60639	779.08480	-809.51099	-374.47421	887.13365	-806.85211	-336.55624	756.52646	-833.44908	-260.35076	1128.66606	-447.87965	-421.10846	1216.82006	-535.61342	-265.91827	1118.30241	-716.22815	-419.93101	1216.59769	-628.08337	-173.56136	1633.29149	-594.31678	-92.90866	1585.63694	-429.70892	-114.18906	1609.73980	-754.47920	-48.19587	1528.23748	-571.62839	-49.84908	1524.74129	-618.63169	-30.73086	1344.05554	-357.94651	-85.60368	1195.07002	-350.03610	-33.59480	1233.75704	-287.13039	125.33938	1231.96280	-433.33113	191.09172	1231.22215	-491.58474	192.63297	1195.70351	-482.45684	-34.37389	1350.12778	-820.33735	-106.61153	1234.75974	-828.05690	-41.75757	1257.88208	-878.02681	121.68168	1243.67069	-750.93605	173.80691	1244.84161	-697.34605	178.01346	1215.37539	-715.83594	-364.85397	1064.08456	-479.92808	-371.99428	1062.52212	-677.26905	-355.40644	1069.20010	-487.15175	-353.14893	1068.77419	-664.41702	
